<svg width="250" height="250" viewBox="0 0 250 250" fill="none" xmlns="http://www.w3.org/2000/svg">
<rect width="250" height="250" rx="50" fill="#EBEDF0"/>
<path d="M75 100H125V100C125 127.614 102.614 150 75 150V150V100Z" fill="#7BC96F"/>
<path d="M175 150H225V150C225 177.614 202.614 200 175 200V200V150Z" fill="#C6E48B"/>
<path d="M175 150L175 200V200C147.386 200 125 177.614 125 150V150L175 150Z" fill="#C6E48B"/>
<path d="M75 100L75 50V50C102.614 50 125 72.3858 125 100V100L75 100Z" fill="#239A3B"/>
<path d="M175 100L175 50V50C202.614 50 225 72.3858 225 100V100L175 100Z" fill="#239A3B"/>
<path d="M175 100L125 100V100C125 72.3858 147.386 50 175 50V50L175 100Z" fill="#239A3B"/>
<rect x="175" y="100" width="50" height="50" fill="#7BC96F"/>
<rect x="125" y="100" width="50" height="50" fill="#7BC96F"/>
<rect x="25" y="150" width="50" height="50" fill="#C6E48B"/>
<rect x="25" y="100" width="50" height="50" fill="#7BC96F"/>
<rect x="25" y="50" width="50" height="50" fill="#239A3B"/>
</svg>
